# Blender 4.3.2
# www.blender.org
mtllib wall.mtl
o Cube
v 0.555556 0.555556 -0.555556
v 0.995718 -1.000000 -0.986267
v 0.555556 0.555556 0.555556
v 1.024070 -1.000000 0.986267
v -0.555556 0.555556 -0.555556
v -0.998150 -1.000000 -1.004901
v -0.555556 0.555556 0.555556
v -0.986267 -1.000000 1.024070
v -1.000000 -1.000000 0.000000
v 0.000000 -1.000000 -1.000000
v 0.750000 0.000000 -0.750000
v -0.750000 0.000000 0.750000
v 0.750000 0.000000 0.750000
v -0.750000 0.000000 -0.750000
v 0.000000 0.750000 0.750000
v 0.750000 0.750000 0.000000
v 0.000000 -1.000000 1.000000
v -0.750000 0.750000 0.000000
v 0.000000 0.750000 -0.750000
v 1.000000 -1.000000 0.000000
v 0.000000 1.000000 0.000000
v 0.000000 0.000000 1.000000
v -1.000000 0.000000 0.000000
v 1.000000 0.000000 0.000000
v 0.000000 0.000000 -1.000000
vn 0.2892 0.8675 -0.4048
vn -0.4048 0.8675 -0.2892
vn -0.4048 0.8675 0.2892
vn 0.2892 0.8675 0.4048
vn 0.0130 0.2333 0.9723
vn 0.2892 0.4048 0.8675
vn -0.2892 0.4048 0.8675
vn 0.0236 0.2591 0.9656
vn -0.9723 0.2333 0.0130
vn -0.8675 0.4048 0.2892
vn -0.8675 0.4048 -0.2892
vn -0.9705 0.2413 -0.0018
vn 0.9709 0.2396 -0.0042
vn 0.8675 0.4048 -0.2892
vn 0.8675 0.4048 0.2892
vn 0.9656 0.2591 -0.0236
vn 0.0048 0.2459 -0.9693
vn -0.2892 0.4048 -0.8675
vn 0.2892 0.4048 -0.8675
vn 0.0134 0.2330 -0.9724
vn 0.4048 0.8675 -0.2892
vn -0.2892 0.8675 -0.4048
vn -0.2892 0.8675 0.4048
vn 0.4048 0.8675 0.2892
vn 0.3162 -0.0000 0.9487
vn 0.4048 0.2892 0.8675
vn -0.4048 0.2892 0.8675
vn -0.3162 -0.0000 0.9487
vn -0.9487 -0.0000 0.3162
vn -0.8675 0.2892 0.4048
vn -0.8675 0.2892 -0.4048
vn -0.9487 -0.0000 -0.3162
vn 0.9487 -0.0000 -0.3162
vn 0.8675 0.2892 -0.4048
vn 0.8675 0.2892 0.4048
vn 0.9487 -0.0000 0.3162
vn -0.3162 -0.0000 -0.9487
vn -0.4048 0.2892 -0.8675
vn 0.4048 0.2892 -0.8675
vn 0.3162 -0.0000 -0.9487
vt 0.625000 0.500000
vt 0.750000 0.625000
vt 0.625000 0.625000
vt 0.875000 0.500000
vt 0.750000 0.500000
vt 0.875000 0.750000
vt 0.750000 0.750000
vt 0.625000 0.750000
vt 0.500000 0.750000
vt 0.375000 0.875000
vt 0.375000 0.750000
vt 0.500000 0.875000
vt 0.625000 1.000000
vt 0.500000 1.000000
vt 0.375000 1.000000
vt 0.500000 0.000000
vt 0.375000 0.125000
vt 0.375000 0.000000
vt 0.625000 0.000000
vt 0.500000 0.125000
vt 0.625000 0.250000
vt 0.500000 0.250000
vt 0.375000 0.250000
vt 0.500000 0.500000
vt 0.375000 0.625000
vt 0.375000 0.500000
vt 0.500000 0.625000
vt 0.375000 0.375000
vt 0.500000 0.375000
vt 0.875000 0.625000
vt 0.625000 0.875000
vt 0.625000 0.125000
vt 0.625000 0.375000
s 0
usemtl Material
f 1/1/1 21/2/1 16/3/1
f 5/4/2 21/2/2 19/5/2
f 21/2/3 7/6/3 15/7/3
f 21/2/4 3/8/4 16/3/4
f 13/9/5 17/10/5 4/11/5
f 3/8/6 22/12/6 13/9/6
f 22/12/7 7/13/7 12/14/7
f 17/10/8 12/14/8 8/15/8
f 12/16/9 9/17/9 8/18/9
f 7/19/10 23/20/10 12/16/10
f 23/20/11 5/21/11 14/22/11
f 9/17/12 14/22/12 6/23/12
f 11/24/13 20/25/13 2/26/13
f 1/1/14 24/27/14 11/24/14
f 24/27/15 3/8/15 13/9/15
f 20/25/16 13/9/16 4/11/16
f 14/22/17 10/28/17 6/23/17
f 5/21/18 25/29/18 14/22/18
f 25/29/19 1/1/19 11/24/19
f 10/28/20 11/24/20 2/26/20
f 1/1/21 19/5/21 21/2/21
f 5/4/22 18/30/22 21/2/22
f 21/2/23 18/30/23 7/6/23
f 21/2/24 15/7/24 3/8/24
f 13/9/25 22/12/25 17/10/25
f 3/8/26 15/31/26 22/12/26
f 22/12/27 15/31/27 7/13/27
f 17/10/28 22/12/28 12/14/28
f 12/16/29 23/20/29 9/17/29
f 7/19/30 18/32/30 23/20/30
f 23/20/31 18/32/31 5/21/31
f 9/17/32 23/20/32 14/22/32
f 11/24/33 24/27/33 20/25/33
f 1/1/34 16/3/34 24/27/34
f 24/27/35 16/3/35 3/8/35
f 20/25/36 24/27/36 13/9/36
f 14/22/37 25/29/37 10/28/37
f 5/21/38 19/33/38 25/29/38
f 25/29/39 19/33/39 1/1/39
f 10/28/40 25/29/40 11/24/40
